<?xml version="1.0" encoding="UTF-8"?>
<svg width="298px" height="227px" viewBox="0 0 298 227" version="1.1" xmlns="http://www.w3.org/2000/svg" xmlns:xlink="http://www.w3.org/1999/xlink">
    <!-- Generator: Sketch 57.1 (83088) - https://sketch.com -->
    <title>Corporate Pages Eco-01</title>
    <desc>Created with Sketch.</desc>
    <g id="Design" stroke="none" stroke-width="1" fill="none" fill-rule="evenodd">
        <g id="About-us-[desktop]" transform="translate(-198.000000, -2888.000000)" fill-rule="nonzero">
            <g id="Corporate-Pages-Eco-01" transform="translate(198.000000, 2888.000000)">
                <path d="M245.721436,184.486496 L245.721436,184.486496 L244.85172,182.43227 C242.12951,182.303881 238.685436,182.5521 233.936788,181.781765 C229.022894,180.977193 227.848778,180.138384 227.526983,179 L112.26356,182.31244 C107.741038,182.440829 104.436118,183.485061 104.992736,184.632004 L106.732168,188.483679 L106.732168,188.483679 L108.410719,192.292557 L104.984039,191.881711 C99.984409,191.272306 94.9495377,190.986382 89.911866,191.025784 C84.8066348,191.085699 57.4453784,193.850345 52.1140211,194.98017 C46.7826638,196.109994 40.0597613,201.194204 37.276671,203.094364 C34.8635511,204.56544 32.3398411,205.853073 29.7275386,206.946038 L29.3274694,207.117224 L28.8230343,207.331206 L28.4229651,207.502391 L27.9359243,207.699255 L27.5532494,207.853322 L27.0836029,208.041626 L26.7270194,208.178574 L26.2747673,208.34976 L25.9529724,208.46959 L25.5181146,208.615097 L25.2398056,208.709249 L24.8049477,208.846198 L24.5962159,208.906113 C24.3961813,208.966028 24.2048439,209.017383 24.0395979,209.05162 L24.0395979,209.05162 C21.1869303,209.693566 19.9693283,209.727803 19.5257733,210.087293 C17.7080675,211.576607 21.1869303,212.894736 21.1869303,212.894736 L21.1869303,212.894736 L21.4739365,213.006006 L21.8914001,213.185751 C24.3613927,214.332694 24.9614965,215.753534 27.6054323,217.131578 L28.1098674,217.371237 C30.4059169,218.40691 34.1109058,219.34843 41.1556031,219.990376 C41.3670331,220.003208 41.5790656,220.003208 41.7904956,219.990376 C41.986023,219.985397 42.1808544,219.965364 42.3732051,219.930461 L44.1126365,219.596649 L44.6779518,219.485379 L47.0348813,219.031737 L50.7572646,218.304199 L51.6269803,218.141572 L52.6967306,217.92759 C56.1161069,217.102134 59.4797577,216.0673 62.7680386,214.829132 L62.9854675,214.777777 C63.4464168,214.683625 65.1336653,214.478202 67.4210177,214.135831 C69.70837,213.79346 72.6393119,213.3227 75.5093738,212.706432 C76.5965184,212.475331 77.7967261,212.175756 79.0578139,211.850504 C80.3189017,211.525251 81.666961,211.148643 82.9628375,210.754917 L84.7022689,210.224241 C87.198353,209.445347 89.6248598,208.632216 91.5991145,207.913237 C92.6427733,207.536629 93.5559748,207.177139 94.2952332,206.869005 C94.8618078,206.643309 95.4428768,206.454596 96.0346646,206.304093 C96.3477623,206.2185 96.6782542,206.141466 97.0174434,206.064433 C97.5218785,205.944603 98.0524051,205.841892 98.5916288,205.73918 C100.383243,206.013077 102.56623,206.346889 104.070838,206.500956 C106.392979,206.740616 110.332791,206.800531 111.489513,206.150026 C112.220074,205.73918 110.758952,205.054438 109.576138,204.592237 C111.767822,204.43817 113.794259,204.266985 115.664148,204.095799 C116.457638,204.544169 117.29004,204.922263 118.151535,205.225624 C119.430017,205.636469 124.404791,205.225624 124.604826,204.44673 C124.691797,204.147155 124.413488,203.633598 124.056905,203.128601 L124.422186,203.077245 L125.657182,202.888941 C126.996544,202.6664 128.153266,202.452418 129.136045,202.238436 C129.596994,202.135725 130.00576,202.033014 130.40583,201.930302 L243.677604,198.686336 C248.200126,198.557947 251.452863,197.513716 250.948427,196.358213 L245.721436,184.486496 Z" id="Path" fill="#E1DDEC" opacity="0.6"></path>
                <path d="M264.773085,177.936478 C265.028478,177.760648 269.404205,176.063893 264.773085,173.813274 C260.141965,171.562655 240,171 240,171 C240,171 243.405235,172.66159 243.575497,174.14735 C243.745759,175.63311 244.358701,176.64413 249.951799,177.602402 C255.544898,178.560673 259.316196,177.998018 262.185106,178.402426 C265.054017,178.806834 264.739033,179.431029 265.666959,179.773897 C266.40391,180.103654 267.245771,180.071334 267.95698,179.685982 C268.450739,179.343115 264.526205,178.112307 264.773085,177.936478 Z" id="Path" fill="#E1DDEC" opacity="0.6"></path>
                <path d="M291.030819,167 C289.95351,167.617384 288.791982,168.048988 287.589052,168.2789 C285.692738,168.609805 277.564486,168.752898 275.735003,170.774097 C273.905519,172.795296 279.251954,173.805896 279.009694,174.074197 C278.252701,174.732658 277.311668,175.101005 276.336477,175.12057 C274.665716,175.317324 274.849499,175.496191 275.350728,175.844982 C275.851956,176.193773 277.188565,175.844982 277.188565,175.844982 C279.060435,175.273221 280.966814,174.839937 282.894213,174.548195 C284.957603,174.342498 291.51534,175.183173 296.619514,173.331898 C301.723689,171.480623 291.030819,167 291.030819,167 Z" id="Path" fill="#E1DDEC" opacity="0.6"></path>
                <path d="M266.865301,163 C266.865301,163 259.739002,165.488248 260.007395,167.584989 C260.275788,169.681729 262.783875,170.308141 262.783875,170.308141 C263.177849,170.61924 263.634158,170.852947 264.125841,170.995455 C264.662627,171.056356 267.624206,170.534346 270.317392,167.65459 C273.010578,164.774834 266.865301,163 266.865301,163 Z" id="Path" fill="#E1DDEC" opacity="0.6"></path>
                <path d="M103.478082,151 C103.478082,151 99.7252917,157.190265 100.016065,158.685666 C100.89784,161.414797 102.212567,163.998121 103.914242,166.345249 C105.313588,168.031922 110.756497,166.275695 110.983664,163.180563 C111.210831,160.085431 108.993685,151.486875 108.993685,151.486875" id="Path" fill="#F48B6E"></path>
                <path d="M60.0317382,134 C60.0317382,134 98.4384273,136.37088 101.488525,141.613655 C104.538623,146.85643 112.987744,153.978016 93.9071041,154.219577 C74.8264646,154.461139 57.2182861,155.84788 56,154.219577" id="Path" fill="#F48B6E"></path>
                <path d="M67.0172,138.394875 C67.0172,138.394875 73.5016,141.458429 77.578,141.582031 C81.6544,141.705633 84.5354,141.582031 84.5354,141.582031 C84.5354,141.582031 86.1522,143.753888 90.6586,143.798032 C95.165,143.842175 96.498,142.579673 98.3986,143.00345 C100.2992,143.427227 105.6742,144.41604 106.8782,143.806861 C108.0822,143.197681 110,133.821614 110,133.821614 L89.36,122 L67,125.195985" id="Path" fill="#FFB380"></path>
                <path d="M93.2245906,161 C93.2245906,161 98.0550751,166.938484 96.7882121,169.751932 C95.5213492,172.565381 91.1921414,172.30878 88.6493015,171.291539 C86.1064615,170.274299 81.7772537,167.341714 80,166.498596" id="Path" fill="#F48B6E"></path>
                <path d="M2.98834577,197.033565 C8.72768701,205.59119 5.7279709,219.549089 23.7956252,225.924174 C24.2242653,226.073733 24.699731,226 25.0614014,225.725762 L34.6500893,218.453506 C40.7188791,213.881388 45.5392322,205.453164 46.5015689,204.737153 C47.4639055,204.021142 53.5240257,201.364137 59.5668064,196.308928 C65.6095871,191.253718 75.0508902,179.219559 79.1689976,172.516661 C83.2871049,165.813764 92.9538202,163.812384 92.9538202,163.812384 C114.732106,158.274083 122.474148,148.879675 119.327047,144.031504 C116.179946,139.183334 107.718319,139.493893 103.842963,141.443513 C99.9676073,143.393133 86.1827847,145.756832 84.4921932,146.671255 C84.4921932,146.671255 77.712488,147.533919 74.8081386,146.671255 C71.9037892,145.808592 69.4936126,145.058074 68.5226063,143.367253 C67.5515999,141.676432 71.1842041,135.663666 70.9414525,133.015288 C70.6987009,130.366911 71.1321859,130.133991 72.2419075,130.133991 C73.351629,130.133991 74.0885535,130.349657 77.9552396,128.917635 C81.8219257,127.485614 82.2900895,127.942825 83.5211868,127.709906 C84.7522842,127.476987 85.1857692,128.46905 87.6392942,128.762356 C91.3759348,129.202314 91.7487319,129.124675 94.1675781,129.409354 C96.3176637,129.659526 97.3146792,133.015288 101.90962,133.49838 C106.504561,133.981472 109.894414,137.544273 112.798763,135.163321 C115.703112,132.782369 116.422697,127.485614 115.945864,125.311701 C115.46903,123.137788 95.1385845,113.777887 90.3008921,111.509081 C85.4179098,109.100289 80.0231046,107.89885 74.5740567,108.006666 C69.250861,108.248212 40.7015397,119.514601 35.1355925,124.112598 C29.5696452,128.710596 22.5558581,149.414526 19.6515087,157.118114 C16.7471593,164.821701 8.92709011,178.736467 5.94471339,181.384845 C2.96233667,184.033223 3.21375797,184.964899 2,185.931083" id="Path" fill="#FFD3B6"></path>
                <path d="M235.515037,73.0213156 C232.680709,72.5273632 229.094593,73.5325997 224.160443,70.3695711 C219.053468,67.1025526 217.835053,63.6622174 217.498044,59 L97.6180741,72.5446949 C95.3531106,72.7990816 93.2824077,73.9475422 91.8635994,75.7362623 C90.4447911,77.5249823 89.7946954,79.8066868 90.0569862,82.0771097 L97.2810657,146.360249 C97.5347306,148.631657 98.6799326,150.708252 100.463577,152.131098 C102.247222,153.553943 104.522453,154.205889 106.786433,153.942852 L234.383034,139.522908 C239.095524,138.983973 242.480462,134.716514 241.944122,129.990493 L235.515037,73.0213156 Z" id="Path" fill="#73CEC6"></path>
                <path d="M212,102.571229 L212.124791,103.656767 C213.843978,103.352312 215.472821,102.676538 216.893593,101.678286 C218.62866,104.020745 221.888841,104.690649 224.43454,103.227804 L224.43454,103.227804 C227.946518,101.669532 228,95.5852674 228,95.5852674 L228,90.4639799 C228,90.2077309 227.788489,90 227.527577,90 C227.431247,90.0006177 227.337608,90.031273 227.260167,90.0875434 C226.074341,90.6819082 224.774575,91.0249025 223.445125,91.0942922 L219.683565,91.0942922 C217.503289,91.0864515 215.511627,92.3073179 214.560983,94.2343776 C213.610339,96.1614374 213.869186,98.4531789 215.226741,100.128769 C218.097677,98.2560209 220.749222,96.077574 223.133148,93.6330501 L223.94429,94.3771688 C221.537975,96.8204637 218.882647,99.0147119 216.020056,100.925413 C214.794734,101.712597 213.431823,102.270575 212,102.571229 L212,102.571229 Z" id="Path" fill="#FFFFFF"></path>
                <polygon id="Rectangle" fill="#FFFFFF" opacity="0.5" transform="translate(143.216194, 105.576684) rotate(-6.510000) translate(-143.216194, -105.576684) " points="100.973781 100.415988 185.458927 100.413374 185.458608 110.73738 100.973461 110.739995"></polygon>
                <polygon id="Rectangle" fill="#FFFFFF" opacity="0.3" transform="translate(119.445580, 126.204856) rotate(-6.510000) translate(-119.445580, -126.204856) " points="103.162317 119.370365 135.729265 119.369357 135.728842 133.039348 103.161894 133.040356"></polygon>
                <polygon id="Rectangle" fill="#FFFFFF" opacity="0.3" transform="translate(171.640966, 120.082303) rotate(-6.510000) translate(-171.640966, -120.082303) " points="155.357703 113.247811 187.924652 113.246804 187.924229 126.916794 155.357281 126.917802"></polygon>
                <polygon id="Path" fill="#FFFFFF" opacity="0.3" points="140 116 141.616027 130 151 121.945701"></polygon>
                <polygon id="Rectangle" fill="#FFFFFF" opacity="0.3" transform="translate(223.214117, 123.724769) rotate(-6.430000) translate(-223.214117, -123.724769) " points="212.654881 113.162704 233.773999 113.162059 233.773354 134.286833 212.654235 134.287479"></polygon>
                <path d="M224.732355,70.4265297 C219.604931,67.1431443 218.381637,63.6855739 218.043279,59 L97.6485787,72.6125502 C95.3745457,72.8682114 93.2955512,74.0224255 91.8710617,75.8201065 C90.4465721,77.6177876 89.7938733,79.9109229 90.0572143,82.19272 L91.7923833,98 L237,81.5743636 L236.054333,73.1176865 C233.252035,72.5951318 229.651559,73.6054042 224.732355,70.4265297 Z" id="Path" fill="#00A698"></path>
                <path d="M220,34 C220,34 223.672266,40.650387 223.829275,46.6034858 C223.986284,52.5565846 224.701547,56.6095727 230.676612,60.4359422 C236.651677,64.2623117 240.699021,62.013557 243.760696,63.6434684 C246.822372,65.2733797 246.46474,67.7749015 247.494021,69.1258975 C248.523303,70.4768936 249.421743,70.1805461 249.953829,68.7946856 C250.485915,67.4088251 246.237949,62.4667944 246.508354,61.7782222 C249.523974,56.6879828 249.523974,50.3601613 246.508354,45.269922 C241.606184,36.2923352 220,34 220,34 Z" id="Path" fill="#00A698"></path>
                <path d="M258.415546,52.3831555 C258.415546,52.3831555 262.373337,48.0820352 264.607714,47.325038 C266.84209,46.5680408 273.969578,49.8110855 279.503556,42.6110102 C285.037535,35.4109349 273.441295,18 273.441295,18 C273.441295,18 271.778503,21.6645545 269.708674,22.972095 C267.638844,24.2796356 258.813923,24.8559857 256.804717,32.6754224 C254.79551,40.494859 260.623942,44.4604919 260.36413,45.5099653 C260.104319,46.5594386 259.307565,48.7788167 257.462905,49.5616206 C255.618246,50.3444244 255.843415,51.0412059 256.389019,52.4003599 C256.934622,53.7595139 258.415546,52.3831555 258.415546,52.3831555 Z" id="Path" fill="#00A698"></path>
                <path d="M243.819677,29.2311379 C243.819677,29.2311379 241.270854,26.7420988 241.007182,18.353434 C240.743511,9.96476917 247.827483,0 247.827483,0 C247.827483,0 253.979817,7.07955078 251.343102,18.6118117 C248.706388,30.1440727 245.726901,32.2455452 245.190769,31.9785548 C244.654637,31.7115645 243.819677,29.2311379 243.819677,29.2311379 Z" id="Path" fill="#00A698"></path>
                <polygon id="Rectangle" fill="#005E53" transform="translate(196.278569, 68.123336) rotate(-6.420000) translate(-196.278569, -68.123336) " points="195.277733 65.1241164 197.279587 65.1240553 197.279404 71.1225551 195.27755 71.1226162"></polygon>
                <path d="M201.953073,127 L200.907263,117.881807 L202.95419,117.66262 L204,126.780813 L201.953073,127 Z M200.317318,112.787894 L199.271508,103.669702 L201.318436,103.441747 L202.364246,112.559939 L200.317318,112.787894 Z M198.681564,98.5670207 L197.635754,89.4488282 L199.682682,89.2208734 L200.73743,98.3390659 L198.681564,98.5670207 Z M197.054749,84.3461474 L196,75.2279548 L198.055866,75 L199.101676,84.1181925 L197.054749,84.3461474 Z" id="Shape" fill="#005E53"></path>
                <polygon id="Rectangle" fill="#005E53" transform="translate(203.854814, 135.351303) rotate(-6.430000) translate(-203.854814, -135.351303) " points="202.853979 132.352084 204.855832 132.352023 204.855649 138.350523 202.853796 138.350584"></polygon>
                <path d="M95.1600915,144.00325 C95.1600915,144.00325 105.203727,139.707123 110.882763,140.015879 C116.561798,140.324636 117.25272,142.732938 117.758272,143.429845 C118.263824,144.126753 117.994196,151.192869 116.780871,151.589841 C115.567546,151.986814 103.931421,159 103.931421,159 L95,157.667936" id="Path" fill="#FFD3B6"></path>
                <path d="M84.2539405,143 C84.2539405,143 88.2469352,142.178295 89,140 C89,140 86.206655,142.054264 79,141.503876" id="Path" fill="#F48B6E"></path>
                <path d="M0.558185544,186.283152 C1.0165376,184.796625 2.28781594,184.683614 5.26278023,182.01482 C6.57729933,180.832553 8.834467,177.424841 11.2040607,173.321678 C12.7953206,177.937736 17.5085635,185.266055 22.9223066,188.100019 C29.6851615,191.620741 32.21907,192.837781 46.4539282,190.290691 C60.6887864,187.7436 69.9855498,167.001764 74.3269221,164.089562 C78.6682944,161.177359 90.3778922,157.656637 92.1853559,157.291525 C93.9928197,156.926413 94.9614127,158.265157 96.3710615,158.386861 C97.7807103,158.508565 107.994178,153.9012 112.80255,149.893661 C115.017989,148.189813 116.55219,145.743911 117.126626,143 C117.585656,143.412506 117.989703,143.882937 118.328719,144.399596 C121.467999,149.285141 113.745199,158.751973 92.021041,164.33297 C92.021041,164.33297 82.3697034,166.358472 78.2704794,173.10435 C74.1712553,179.850228 64.7534178,191.985853 58.7170077,197.080034 C52.6805976,202.174215 46.6095949,204.84301 45.6842427,205.573234 C44.7588904,206.303458 39.898629,214.787964 33.8622189,219.395329 L24.2973628,226.723648 C23.9365913,227 23.4623073,227.074302 23.0347326,226.92359 C4.97739121,220.499358 7.9696518,206.433855 2.27916779,197.810258 C2.28781594,197.784179 -1.3617042,192.377045 0.558185544,186.283152 Z" id="Path" fill="#FFB380"></path>
                <path d="M43.941813,124.092304 C43.941813,124.092304 40.4154056,124.734753 38.8963378,126.31483 C37.3772701,127.894906 36.7533672,134.067624 37.0879238,134.918434 C37.4224804,135.769245 39.1043055,129.70939 42.7663439,128.572082 C46.4283823,127.434774 50,125.828652 50,124.734753 C50,123.640854 43.941813,124.092304 43.941813,124.092304 Z" id="Path" fill="#FFC8A9"></path>
                <path d="M113.678337,142.896958 C113.678337,142.896958 116.321576,144.559337 115.967327,148.773067 C115.613079,152.986796 109.38194,153.297937 108.700693,152.844561 C108.019446,152.391185 108.364611,148.035219 107.183783,146.621753 C106.002955,145.208287 105.485207,145.128279 106.675118,143.270327 C107.86503,141.412374 112.624675,141.86575 113.678337,142.896958 Z" id="Path" fill="#FFE7E0"></path>
                <path d="M116.993437,81.885629 C117.065582,82.6218117 116.534704,83.278245 115.806278,83.3535554 L111.757533,83.7652909 L108.213774,91.8209846 L106.441894,92 L107.68221,86.4773744 L107.460725,84.2486325 L102.756385,84.7230234 L101.480631,87.0949776 L99.7087518,87.273993 L100.240316,83.6220786 L99,80.1491795 L100.77188,79.9701641 L102.464025,82.0467429 L107.168365,81.5723521 L106.94688,79.3436101 L104.652296,74.1790154 L106.424175,74 L111.50061,81.1606166 L115.549355,80.7488812 C116.253481,80.6790006 116.88834,81.1787469 116.993437,81.885629 Z" id="Path" fill="#FFFFFF"></path>
                <path d="M73.2497797,55.9565911 C71.961084,54.3277858 70.7079386,52.6718339 69.3925802,51.0611265 C68.8504393,50.4005555 68.8415517,49.9300117 69.5436687,49.4051745 C70.4324243,48.7536524 71.2500795,48.0568857 72.0766223,47.3510702 C72.6454259,46.8624286 73.0809161,46.8624286 73.5608442,47.4868039 C76.1115729,50.7625122 78.6978518,54.0201226 81.2396929,57.3048798 C81.7682025,57.8653394 82.0420369,58.625534 81.9947509,59.4010042 C81.9474649,60.1764745 81.5833803,60.8963453 80.9908413,61.3859418 C79.755471,62.4084695 78.1023855,62.137002 76.9647783,60.698224 C75.7205204,59.1237123 74.4821875,57.543168 73.2497797,55.9565911 Z" id="Path" fill="#FDBD6D"></path>
                <path d="M73.4043343,74.9691282 C74.0134795,75.6958412 74.1687887,76.6956896 73.8083419,77.5700462 C73.4478952,78.4444029 72.6303083,79.05108 71.681543,79.148203 C68.6235886,79.6513977 65.5484062,80.0778339 62.4818378,80.538385 C61.5515305,80.6833733 60.6126093,80.7942467 59.682302,80.9648212 C59.0104134,81.092752 58.6486273,80.8795339 58.5538738,80.197236 C58.3902086,79.0714444 58.2179295,77.9541816 58.0370364,76.8283901 C57.9618859,76.6005633 58.0025075,76.350826 58.1461,76.1578787 C58.2896925,75.9649315 58.5185711,75.8525374 58.7606087,75.8561155 C62.8953077,75.2420474 67.0300067,74.6194506 71.1647056,74.0224399 C72.0307266,73.9028845 72.8925404,74.2671721 73.4043343,74.9691282 L73.4043343,74.9691282 Z" id="Path" fill="#FDBD6D"></path>
                <path d="M96.7222323,58.0568852 C96.0042596,57.3180864 95.8010014,56.2279048 96.2054318,55.2850101 C97.7201918,51.4307838 99.2616828,47.5853571 100.776443,43.7311308 C101.043753,43.0535613 101.417988,42.8511705 102.139727,43.106359 C103.200059,43.5463391 104.278211,43.9863193 105.347454,44.3647022 C105.609206,44.4137147 105.829223,44.5879042 105.9346,44.8295527 C106.039978,45.0712012 106.016956,45.3487557 105.873165,45.5702479 C104.304942,49.4772718 102.799093,53.4106946 101.195229,57.3001193 C100.875448,58.1715549 100.106624,58.8064103 99.18154,58.962921 C98.2564563,59.1194316 97.317496,58.7735084 96.7222323,58.0568852 L96.7222323,58.0568852 Z" id="Path" fill="#FDBD6D"></path>
                <path d="M75.4787455,65.5960937 C76.1737515,66.5869325 76.1737515,67.9155035 75.4787455,68.9063424 C74.7611031,69.8985111 73.4689618,70.2666373 72.3469022,69.7985927 C70.314723,69.022335 68.3001383,68.1925421 66.2767564,67.3895168 C64.5172939,66.6757166 62.6962502,65.9351488 60.8840037,65.265961 C60.0658537,64.9625959 59.7843396,64.5610833 60.1714214,63.704523 C60.5585032,62.8479626 60.9719769,61.6969597 61.3590586,60.6887168 C61.422417,60.4144423 61.6097619,60.1866226 61.8644223,60.0741723 C62.1190826,59.961722 62.4111457,59.9778496 62.6522636,60.1176766 C66.4878919,61.6701922 70.3411149,63.1780953 74.1855405,64.7395333 C74.6422767,64.9830535 75.075274,65.2698513 75.4787455,65.5960937 L75.4787455,65.5960937 Z" id="Path" fill="#FDBD6D"></path>
                <path d="M90.2149728,57.2131673 C89.5248191,57.9350406 88.4838695,58.1864267 87.5461405,57.8576819 C86.6084116,57.5289372 85.9439727,56.6796838 85.842623,55.6803288 C85.366258,52.7524349 84.9919713,49.8073182 84.5156063,46.8794244 C84.362489,45.8116043 84.2263847,44.7351728 84.0307349,43.6759641 C83.9116436,43.0042709 84.1328131,42.6339784 84.7963214,42.530641 C85.9106751,42.3670234 87.0335354,42.2034058 88.1563957,42.0225653 C88.802891,41.9106164 89.0580865,42.2206287 89.1431516,42.8320418 C89.7386078,46.8622015 90.3510771,50.9009727 90.9465333,54.8880751 C91.1257404,55.7395247 90.8476104,56.6234952 90.2149728,57.2131673 Z" id="Path" fill="#FDBD6D"></path>
            </g>
        </g>
    </g>
</svg>