<svg id="Layer_2" data-name="Layer 2" xmlns="http://www.w3.org/2000/svg" viewBox="0 0 694 933"><defs><style>.cls-1{fill:#0770e3;}.cls-2{fill:#084eb2;}.cls-3{fill:#111236;}.cls-4{fill:#cddff8;}.cls-5{fill:#b46a57;}.cls-6{fill:#c6826d;}.cls-7{fill:#f1f2f8;}.cls-8{fill:#a35d50;}.cls-9{fill:#a46453;}.cls-10,.cls-16,.cls-17,.cls-18,.cls-19,.cls-20,.cls-21,.cls-22{fill:none;stroke-linecap:round;}.cls-10{stroke:#b46a57;}.cls-10,.cls-16,.cls-17,.cls-18,.cls-19,.cls-20,.cls-21{stroke-linejoin:round;}.cls-10,.cls-16,.cls-17,.cls-20,.cls-21,.cls-22{stroke-width:2px;}.cls-11{fill:#444560;}.cls-12{fill:#68697f;}.cls-13{fill:#1a1e4f;}.cls-14{fill:#6d9feb;}.cls-15{fill:#042759;}.cls-16{stroke:#cddff8;}.cls-17{stroke:#1a1e4f;}.cls-18{stroke:#894437;}.cls-19{stroke:#c6826d;}.cls-20{stroke:#084eb2;}.cls-21{stroke:#0770e3;}.cls-22{stroke:#042759;stroke-miterlimit:10;}.cls-23{fill:#ffb95c;}.cls-24{fill:#ffb54d;}</style></defs><path class="cls-1" d="M513.84,418.4s20.69,9.77,24.21,15.17,9.35,67.18,8,71.91S521.7,515.6,518.3,515.6s-23-2.7-23-2.7"/><path class="cls-2" d="M513.6,434.66s5.92,5.33,7.16,7.84,2.12,72.39,2.12,72.39S518,520,486,512,513.6,434.66,513.6,434.66Z"/><path class="cls-3" d="M60,725.92s-2.39,11.24-1.76,13.44,6.62,7.56,9.13,7.56,11.15-10.5,11.15-10.5"/><path class="cls-4" d="M376.6,887.63c-6.42-1.31-28.76-38.38-46.3-44.56s-70.91-13.65-70.91-13.65S258,816.9,233.56,814.14s-131.32-22.86-131.32-22.86-40.48,2.33-44.15-4.74,89.4-31.13,109.33-29.41,86.54-2.19,100,4.5,22.84,22.09,22.84,22.09,128.45,5.82,132.09,8.76-2.51,13.26,6.15,21.66S574,856,574,856s-32.2,41.25-72.56,45.35"/><path class="cls-5" d="M333.39,731.49s-5.73,22.47-5,25.64,1.9,11.22,10.62,12.68,7.4,3.66,12.14,0,8-20.45,8-20.45"/><path class="cls-3" d="M398.2,668.53s-22.71,51.74-21.6,56-1.08,29.14-3.28,31.34-21.71,1.67-31-3.55-13.4-28-12.06-34.88,20.38-46.23,25.85-60.93,7.83-48.83,11.32-59.38,5.85-17.56,5.85-17.56"/><path class="cls-5" d="M469.51,820.27s14,34.27,17.49,35.73,11.78-3.42,14.86-3.42,11.52,2,16.44-1.6-1-6.72-4.3-9-11.51-31-21-50"/><path class="cls-3" d="M513.5,464.27c7.88-17.39-3.21-71.64-8.45-80.84l-151-7.21s-5.31,20.67-11.64,36.75-12.59,53.35-12,75.3,18.88,50,25.08,61.2,31.37,77.33,35.24,93.26,5.36,21.78,7.54,25.8.71,32.68,8,52.72,31.69,53,40.34,66.11,12.56,42.41,20.11,41.68S486.05,813,492.2,812.22s14.56-9.5,14.38-16.82-37.44-89.08-41.84-132.65c-1.4-13.83-2.83-26.44-4.09-37.67,9.44-20.35,34.5-75,36.38-85.88C499.36,525.76,513.5,464.27,513.5,464.27Z"/><path class="cls-3" d="M208.47,480.67s-25.37,1.93-27,2.84-4.67,6-1.64,10.21,21.81,2.15,21.81,2.15"/><path class="cls-5" d="M250.16,497.38s-30.59,4.13-32.29,4-11.66-6.48-11.66-6.48l-.65-2.54,36.29-13.79L254,483.5"/><path class="cls-3" d="M203.35,483.71s29.94-7.26,30.87-7.26,49.67-5.58,52.64-5,4.09,4.65,3,9.3-3.72,6.14-5.4,6.14-87.06,10.38-87.61,9.09S200.8,484.32,203.35,483.71Z"/><path class="cls-5" d="M235.55,494.35c.47-.14,3,.5,5.06-1.53s4.11-6.86,5.65-6.89,2.26-1.46,2.93,2.09c0,0,5.67.2,6.49,1.92s-5.15,12.15-10.55,13.62-7.58,1.94-8.66,1.89.14-.06-3-1.28a10.52,10.52,0,0,1-4.65-3.31"/><path class="cls-3" d="M388.69,179.71s-69.5,20.93-72.37,23.75-30,58.86-31.85,67.16-8.35,15.87-3.13,32.39-7.1,59.22-2,63.65,14.74,10.93,30.36,12.75,28.12,19.07,35.67,14.39,16.8-7.62,17-11,11.38-32.31,12.16-33.1"/><path class="cls-6" d="M271.31,335.53A74.47,74.47,0,0,1,264.7,347c-3.74,5.09-27.17,99.5-28.53,102.89a32.78,32.78,0,0,1-7.47,10.87c-3,2.72-11.88,6.79-17.32,11.55s-13.3,9.4-10.92,13.48,6.79,1,10.86-1.7,4.52-2.91,9.61-4.61,11.85-.72,19-1.74,13.58-4.41,16.3-7.81,5.43-11.89,6.79-15.62,23.43-61.47,32.26-74.37a64.8,64.8,0,0,0,10.53-29.55,58,58,0,0,1,1.7-7.81"/><path class="cls-7" d="M510.76,212s11.55,5.68,19.77,13.62c0,0,2,10,4.78,13.7s1.13,6.09,2.8,7.63.93,6.08,2.82,8.57S546,265,546,265s14.94,41.9,17.26,46.66,8.63,13.92,8.53,16.64-3.84.34-15.39,0-12.21-1.16-15.61,1.28-10.27,9.25-10.27,9.25-2.79,3.05-3.91,3.05-4.5,2.38-5.52,0-2.88-4.07-2.8-5.43-2-3.4-2.64-7.13-1.36-1.36-1-6.8.68-7.13.34-8.49-2.71-12.82-2.71-12.82a59,59,0,0,1-1.51,10.45c-1.21,4.41-2.13,11.54-4.22,12.9a18.78,18.78,0,0,0-4.12,4.42,31.46,31.46,0,0,1,4.12,9.51c1,4.75,0,7.47,0,7.47s12.52,25.93,13.54,31.36-3.4,12.23-5.78,13.59-11.71,6.45-19.44,7.47-20.87,2.38-24.32,2.38-14.68-1.36-15.85,0-26.64,1.69-26.64,1.69-20.72,4.08-32.94,0-22.76-11.2-26.83-13.24-12.13-3.4-12.13-3.4-9.61-2.37-10.63-4.75-3.73-7.47-3-13.24,5.43-31.71,7.81-35.45,5.29-6.45,5.87-9.51-.92-4.07,0-7.47-.1-7.7,1.26-10.64,3.4,1.19.34-4.61-4.06-6.05-5.09-11-1.36-5.65-1-7.69-.68-35.23,5.77-40.88,18.34-11.71,18.34-11.71"/><path class="cls-6" d="M468.28,172.45a17.08,17.08,0,0,0-5.45,8.72c-1.27,5.44,1.82,10.16,4.36,11.62S501.5,207.67,510.76,212s15.62,12.16,16.16,12.53-21.82,2.36-32.06,5.44-45.54,21.42-56.39,21.24-36.63-21.78-47-31.22S346.1,205,347.19,201.68,387,184.43,396,180.8s23.23-25.65,23.78-30.07"/><path class="cls-3" d="M486.59,170s-3.78,2.08-5.3.66-3.39-3.28-3.39-3.28-4.74,1.28-4.49-1.05-.89-3.69,1.12-6.06,7.44-4.41,9.3-4.58a34.7,34.7,0,0,1,4.43,0"/><path class="cls-5" d="M462.83,181.17s-10.79,2.36-24.36-2-27.11-29.58-25.2-29.59,42.3,16.71,44.12,16.71,9.09,8,9.09,8S464.47,179.71,462.83,181.17Z"/><path class="cls-3" d="M493.71,80.16s-.63,13.13,3,18.24,3.8,5.26,5.72,8.83,1.31,5.61,3.69,9.33,3.78,3.17,2.89,6.8-4,8.52-3.78,11.17-1.05,3.76.41,9.05,2.41,6.37,2.28,8.25a13.29,13.29,0,0,1-2.42,7.37c-2,2.67-8.53,5.24-8.53,5.24a8.41,8.41,0,0,0-3.09,2.69,39.86,39.86,0,0,1-5.56,5.84c-.77.48-1.55,1.27-3.12,0s-1-3.73-1.62-5.6,1.85-1.74-1.43-2-3.11,1.13-6.41-.4-9.81-4.73-9-7.08"/><path class="cls-6" d="M480.29,80.6c-3.2-7-13.44-12.76-34.53-9.79s-31.35,9.74-33.11,27.36c-.94,9.47,1,18.56,3.08,25a2.62,2.62,0,0,0-2-.48c-3.53.86-5.36,8-3.95,12s2.75,2.69,4.14,4.31,1.52,5.14,5.53,7a7.69,7.69,0,0,0,3.62.81c3.12,9,8.44,19.69,17,24.55,16.14,9.21,31.88,6.71,35.75,3.54s11.89-21.26,13-27.14-.11-22.14,0-23a192.62,192.62,0,0,0,1.27-20.34C490.05,100.15,483.5,87.6,480.29,80.6Z"/><path class="cls-8" d="M432,103.64a146.78,146.78,0,0,1,13.5-7.17c5-2.09,2.63-2.22,6.69-2.42s2.95-1.28,5.46-.06,1.54,2.47,4.88,3.54,3.15,2.46,4.53.1-1-4,2.91-5,6-3.68,8.58-.56,7.42,4.76,9,9.74,1.86,12.18,2.32,11.71,3.57-13.65-1-21.41S475,70.63,470.65,69.85s-14.22-.52-17.34-.48S428.5,84.63,428.5,84.63Z"/><path class="cls-3" d="M507.79,96.59c-1-.47-1.81-1.6-3.13-3.22s-1.19-4.54-1.19-4.54S501,82.51,497.59,79a41,41,0,0,0-6-5c-1.28-2.95-2.82-5.22-4.45-6.06-2.67-1.38-4.08-1.05-5.65-2.28s-3.79-.74-2.7-2.16,2-3.3,2.63-3.93-.33-2.18-1.75-3.1a18.28,18.28,0,0,0-4.7-1.82c-1.88-.61-3-1.53-6.42-.87a25.75,25.75,0,0,0-7.15,2.58c-1.24.64-4.07-.58-4.54-1s.78-.33-2.2-.92-7.26-1.47-9.26-.66a38,38,0,0,0-8-3.83c-1.1-.3-14.82,1.41-18.72,2.08s-8.55,2.75-9.63,3.7-2,1.43-1.7,1.89-.78,3,1.12,3.42l1.89.45s-2.62,3-3.87,3.32a26.78,26.78,0,0,0-6.51,4.14c-1.08,1.1-4.94,5.2-5.69,7.71s-2.39,10-2.39,10-1.67,4.39-3.84,5.66a7.71,7.71,0,0,0-3.34,3.79c-.2.62-2.67,3.77-1.24,5.79s3.17,3.71,2.1,5.75-3.86,4.57-5.23,7.71-2.74,6-2.88,7.84-2.46,3.46.69,5.61,4.1,4,4.72,3.78.32-.08-.12,2.89-1.63,7.67-.49,11.87,1.32,6.85,3.83,8.08,3.45,1.21,5.65,2.43,3.13.75,3.78,3.08-.27,3.44.53,5.15,1.28,2.8,2.84,2.78,1.57,1.07,3-.81,2-2.53,1.67-4.08a17.12,17.12,0,0,1-.66-3.59c0-1.25-2.18.5,0-1.25s3.7-4.57,4.33-3.79.5,3,1.61,4.51.51,3,2.7,3.25,1.86-.65,3.89-.36c.46.07.64.05.7,0a14.79,14.79,0,0,0,1.82,1.22c3.77,2.3,4.87,2.6,6.58,2.27s.64,1.4,4.51-1.3v-9.27l.08,0c2.33-.75,4.49-1.13,4.47-2.93s-4-6.08-4-7,1.58-3.43,2.29-5.06,1.43-.92.67-4-2.57-4.83-2.76-5.37a17.88,17.88,0,0,1,.49-4.5c.34-2,.88-1.63.85-4.69s.87-2.71-.77-4.85c-.78-1-1.14-1.22-1.33-1.31v-5s1.77-1.4,4.07-5.62,1-8.11,2.57-9.07,1.55-1,4.83-1.3,5.3-.84,7.15-3-4.23-1.52,1.76-3,6.18,1.34,7.86-1.81,1.53-3.29,2-4.08a4.81,4.81,0,0,0,.44-1.05,6.31,6.31,0,0,0,2.42,6c3.63,3.08,4,5.42,4,6.82s-.57,5,.07,6.4a23.79,23.79,0,0,0,2.54,3.7,6,6,0,0,0,3.26-1.57c1.08-1.26.92-2.2,0-3.75s-2.2-1.38-2.05-2,3.7-.82,2.74-4.71-2.21-3.73-2.38-5.13,1.07-1.88.27-4.22a9.68,9.68,0,0,0-.58-1.26,4.68,4.68,0,0,0,2.71-1.57,4.27,4.27,0,0,0,.31.34c2,2.22,4.63,5.9,4.79,6.94s-.29,2.5.82,4.05.66,3.12,4.1,3.39,1.64-1,3.44.27,3.43,5.74,3.43,5.74L491.57,112s.83-6,1.53-12.79c3.27,9,7.77,20.32,9.74,20.76,2.77.62,2.1-1.32,3.3-3.36s.86-3.52.5-6-.53-3.9-1.85-5.35a49.39,49.39,0,0,1-3.81-6l.66.49c.66.48,4.1,2.72,6.72,4.15s1.78-.51,2.27-1,.77-4.08.77-4.08S508.77,97.07,507.79,96.59Z"/><path class="cls-9" d="M455.75,136.9s3.67,3.89,8.64,4a12.49,12.49,0,0,0,9.18-4c.86-1-1.51,5.94-2.7,6.59A11.47,11.47,0,0,1,466,144.8c-2.41.27-3.18.31-6.32-.88S455.53,138.84,455.75,136.9Z"/><path class="cls-3" d="M434.58,109.24a39.87,39.87,0,0,1,10.8-3.25c5.26-.61,8.8.59,9.15,1.12s.12,4.14-1.55,4.18-8.69-1.68-11.42-1.46A32.75,32.75,0,0,1,434.58,109.24Z"/><path class="cls-7" d="M440.19,127.28a22,22,0,0,0,7.4,1.81c4.29.29,7.1.08,8.18-1.32a4.93,4.93,0,0,0-2.82-7.16c-4.08-1.47-8.67-.09-9.84,0s-2.92,1.84-2.92,1.84S438.44,125.09,440.19,127.28Z"/><path class="cls-3" d="M474.87,112.73c.05-.34-1.13-3.74.51-4.5s8.84.56,10.07,1.2,4.23,3,3.8,3.65-6-1-7.85-.76S474.87,112.73,474.87,112.73Z"/><path class="cls-3" d="M456.78,127.28s1.14-6.42-4.51-7.69-7.4.58-10.33,0a18,18,0,0,1-5.74-2.53s-1.27,2.43,3,4.09a13.41,13.41,0,0,0-.59,3.41,4,4,0,0,0,1.56,2.72,4.62,4.62,0,0,1,2.34-5.74c3.8-2.24,9.56-.2,11,.63s2.14,5.31,2.23,5.6S456.78,127.28,456.78,127.28Z"/><path class="cls-7" d="M486,130.47a16.11,16.11,0,0,1-6.41.77c-3.59-.29-5.88-.88-6.55-2.4s-.12-5.79,3.49-6.68,7.18,1.07,8.13,1.33,2.12,2.2,2.12,2.2S487.84,128.54,486,130.47Z"/><path class="cls-3" d="M472.33,128.22s.1-6.5,5-7,6,1.58,8.53,1.4a14.32,14.32,0,0,0,5.16-1.73s.66,2.58-3.15,3.63a16.15,16.15,0,0,1-.07,3.45,4.16,4.16,0,0,1-1.73,2.48,5.12,5.12,0,0,0-1-6c-2.78-2.73-7.87-1.49-9.21-.87s-2.62,5-2.75,5.23S472.33,128.22,472.33,128.22Z"/><path class="cls-3" d="M444.69,128.69s-.33-4.62,4.26-5.57,6,5.29,6,5.29S452.24,130.59,444.69,128.69Z"/><path class="cls-3" d="M475.71,130.47s-.54-4.07,3.13-4.78,5.76,1.73,5.84,5.17C484.68,130.86,479.09,132.71,475.71,130.47Z"/><path class="cls-7" d="M445.63,150.33a54.47,54.47,0,0,0,12.64,2.81,1.68,1.68,0,0,1,1.48,1.89c-.34,2.39-1.12,6.45-2.47,6.64-1.72.25-12.1-1.4-13.88-9.46A1.67,1.67,0,0,1,445.63,150.33Z"/><path class="cls-10" d="M413.09,185s5,30.88,18,41.88"/><path class="cls-5" d="M419.58,161.34s17.26,27.45,28.08,30,15.17-10.16,15.17-10.16l-17.66-4"/><path class="cls-11" d="M400,178.34s20.66,46.32,47.64,44.73S469,193.67,469,193.67l-1.84-.88s3.42,28.09-19.53,27.84-40.12-31.36-45.51-44.13C402.15,176.5,400.57,176.06,400,178.34Z"/><path class="cls-11" d="M447.66,220.63a45.29,45.29,0,0,0-1.09,7.74c.11,2.36,5.37,9.26,5.74,8.71a23.68,23.68,0,0,0,2.37-8.21c.17-3.41-3.11-6.25-3.11-6.25"/><path class="cls-11" d="M596,243.4l-33.24,50.17a1.81,1.81,0,0,1-1.3.8l-32.82,3.69a1.81,1.81,0,0,1-1.83-2.6l26.62-53.87a1.82,1.82,0,0,1,1.63-1h39.43A1.82,1.82,0,0,1,596,243.4"/><path class="cls-6" d="M579.83,292.83s-9.19,25.27-8,35.5S565.09,366.2,551.93,370s-24.41-5.39-26.52-14.29-6.26-9.8-2.53-11.77,5.64-2.12,10.29-7.59,16.5-27.08,16.5-27.08"/><polyline class="cls-12" points="596 243.4 563.36 294.87 530.53 297.85 557.63 243.72 596 243.4"/><polygon class="cls-11" points="584.14 256.67 572.01 257.1 580 243.81 592.56 243.72 584.14 256.67"/><path class="cls-3" d="M587.65,248.78l-8.82.16a.18.18,0,0,1-.16-.27l2.12-3.48a.19.19,0,0,1,.15-.09l8.9-.09a.19.19,0,0,1,.16.28l-2.2,3.41A.18.18,0,0,1,587.65,248.78Z"/><path class="cls-3" d="M583.48,255.27l-8.66.28a.19.19,0,0,1-.16-.28l2.79-4.59a.19.19,0,0,1,.15-.09l8.77-.19a.18.18,0,0,1,.16.28l-2.9,4.5A.21.21,0,0,1,583.48,255.27Z"/><path class="cls-3" d="M570,257.17l-4,.15a.19.19,0,0,1-.16-.28l7.54-13.1a.19.19,0,0,1,.16-.09l4.2,0a.19.19,0,0,1,.16.28l-7.71,13A.16.16,0,0,1,570,257.17Z"/><path class="cls-5" d="M577.07,272s-13.51-2.94-15.61-2.65-16.84,3.08-17,3.87-1.07,4.39,4.25,4.52,12.76,0,14.35,0,8.92,1.89,8.92,1.89-9.18-.23-14.23,0-23.39,5.82-24.06,7.55-.93,2.92.4,3.52,13.29-.86,16.08-1.4,10.7-.53,11.26-.53a5.11,5.11,0,0,1,1.5.4,17.3,17.3,0,0,1-6.11,3.19c-3.06.67-18.26,4.6-19.7,4.77l-2,.22s-2.48,1.11-.56,3.91a7.46,7.46,0,0,0,3.5,2.66,15.36,15.36,0,0,0,11.56,5.32c7.84.13,13.42.93,18.07-1.6s9.45-7.7,10.91-11.29,2.62-9.44,3.63-11.43,2.08-11.08.75-14.11a10.33,10.33,0,0,1-.75-5.76Z"/><path class="cls-11" d="M546,272.54s-.49,2.66,2,2.66,4-.54,3.85-4.06Z"/><path class="cls-11" d="M535.85,289.15a2.5,2.5,0,0,1,0-3.35c1.52-1.6,4.52-.9,5,.56S535.85,289.15,535.85,289.15Z"/><path class="cls-11" d="M537.8,298.15a2,2,0,0,0-1.45,3.69,3.51,3.51,0,0,0,3,.15C542.1,301,540.55,298.87,537.8,298.15Z"/><path class="cls-7" d="M443.31,250.57s-36.48-28.18-42.56-38.18-14.51-27.83-14.51-27.83l14.42-4.85-.64-1.37-11.33,1.37s-34.19,21.54-32.48,22.68,33.33,19.5,33.33,20.72-15.1,7.49-15.1,10.33,46.9,15.17,52.22,17.13,18.51,5,18.51,5Z"/><path class="cls-7" d="M443.31,250.57s16.18-13.42,20.8-15.42,14.7-14.52,14.7-14.52,3.17-12.25,3.1-13.39,0-8.1,0-8.1l-14.72-6.35-3.08-3.31-1.5-4.53,17.64,8.9s26.22,12.53,28.29,13.67,9.76,3.42,9.76,3.42l-28.85,17.93s12.9,2.3,12.33,6-40.09,14.88-42.41,15.7l-14.2,5Z"/><path class="cls-7" d="M373.71,189.37S346.88,197.6,343.83,201s-23.44,26.82-27.51,33.27-16,31.31-19,36.88,2,12.75,0,13.74-8.49,1.09-9.51,4.27,0,8.7,0,8.7L281.34,303l-2.72,6.43s-1.7,5.64-3.73,8.36-5.44,5.43-5.78,7.13-1.69,7.47-1.69,7.47,3.73,3.06,8.15,6.46,10.18,8.15,14.6,8.49,18.68-.34,20.37,0,6.12,2.57,7.82.09,4.07-9.6,5.43-12.66,0-4.75,3.06-10.53,3.73-8.49,6.45-10.86,1.7.34,7.81-5.78,3.73-4.41,8.15-11.54,2.58-8.11,6.89-11.19,7-17.68,13.82-24.47,4.08-6.29,8.83-11.47,3.74-4.75,6.46-8.36,2.37-4.62,4.41-8,4.58-6.36,3.2-9.45L391.49,220"/><path class="cls-7" d="M483.1,232.22s23.23-21,27.66-20.19,13.83,6.9,16.16,12.53S486.53,237,483.1,232.22Z"/><path class="cls-4" d="M352.66,289.15l6.67-13.95s8.9,16,13,19.3,11.43,15.25,16.52,17.79,28,14.74,33.54,16.77,21,8.38,21,8.38-46.88-10.92-53.23-13.21a157.6,157.6,0,0,1-17.79-7.37c-4.32-2.28-10.16-2.54-10.16-2.54l.25,8.39s5.85,5.33,12.2,6.6,29.26,7.12,38.51,11.18,17.84,13,21.68,14-21.57-8.64-31.73-9.66-17.54-.51-24.91-1.27a112.69,112.69,0,0,0-14.22-.51c-1,0-9.91,33.19-9.91,33.19s7.11,5.34,8.38,6.61a35.77,35.77,0,0,1,3.52,5.43s-17.42-4.85-20.38-7.17S337,368.54,339.77,363s9.91-36.36,9.91-38.44-1.53-5.64-.77-8.18,2.29-4.94,2.55-6.92S352.66,289.15,352.66,289.15Z"/><path class="cls-4" d="M533.17,337.9c-.09.09,2.5-9.68,1.23-11.76s-11.69-14.28-12.2-16.57-3-10.93-3.9-14-5-7.3-5.25-9.11a46.48,46.48,0,0,0-2-6.39s1.28,22.93,2,26.29-1,20.72-1,21.48,8.64,17.79,8.64,17.79,7.25-.26,9.85-2.29A7.64,7.64,0,0,0,533.17,337.9Z"/><path class="cls-11" d="M352.66,289.15s3.4-16.73,4.7-27.4-6-39-8.07-41.5-11.28-12.62-12-11.8l-4.5,5.24s-1.12-5.31,0-7.13,14.92-10.43,18.3-12.37,4-2.57,6.41-2.52,14.94,19.08,19.37,29,8.85,34.14,8.07,44.4-9.71,26.05-12.67,29.47-14.88,10.28-14.88,10.28l-6,4.66s-3.21,3.72-5.29,1.83a38,38,0,0,0-5.06-3.66Z"/><path class="cls-5" d="M269.19,339.75s10,10.4,15.09,13.16,8.49,7.5,11.45,6.91,9.54-5.41,9.66-6.21,1.13-5.64,1.13-5.64-18.68-3-22.43-5.51-12.78-6.93-12.78-6.93Z"/><path class="cls-11" d="M548.24,311.81s.54,4.73,10.17,4,16.56-7.63,16.78-8.41,3.46-11.1,3.46-11.1a21.8,21.8,0,0,1,1.18,4.91c.16,2.18-.36,9.6-2,11.63s-7.94,9.76-18,9.06-13.92-3.31-14.34-5.29S544.43,314.34,548.24,311.81Z"/><path class="cls-11" d="M579.39,307.92s4.64-.52,4.26-2.16-1.37-9.43-1.37-9.43l-2.45-3.5-1.18,3.5"/><path class="cls-5" d="M206.25,495.17s6.87,12.92,11.83,12.51,10.7-9.79,10.81-13.25-3-3.89-5-3.05-5.65,7.16-6.67,6.82-2.3-2.87-2.3-2.87Z"/><path class="cls-5" d="M218.25,505s7.43,3.41,10.23,3.06,14.7-9.84,14.81-12.47-4.23-7.64-7.82-6.71-7,8.36-8.56,8.76a9.7,9.7,0,0,1-4-.27Z"/><path class="cls-6" d="M221.45,493.62l-4.25,4.58-2.09-1.5s1.1,2.84,2.22,2.65,5.26-6.09,6.76-6.79a17.58,17.58,0,0,1,3.41-1.1S223.9,489.3,221.45,493.62Z"/><path class="cls-6" d="M228.79,495.75c.17-.24,3.58-7,7.63-7.42a3.75,3.75,0,0,1,4.49,3.12,4,4,0,0,0-3.9-1.09c-2.26.7-10.81,9.86-10.81,9.86Z"/><path class="cls-6" d="M242.89,489.76s1.64-4.68,5.16-4.33,3.52,3.05,3.52,3.05a6.18,6.18,0,0,0-4-.19,18,18,0,0,0-4.63,2.34Z"/><path class="cls-13" d="M460.65,625.08s-8.57-61.1-12.11-72.79-37.57-85.41-44-87.18-26.58,1.06-30.83,4.6-7.8,13.16-7.09,18.81,34.38,86.09,40.05,94.6,25.87,46.78,31.18,50,7.09,5,12.05,3.9S460.65,625.08,460.65,625.08Z"/><path class="cls-13" d="M460.65,646.91c.09-1.52-8.92,6-16.37,7.09s-16.3-2.48-18.07,0,16.3,11,25.16,14.37S460.36,651.87,460.65,646.91Z"/><path class="cls-13" d="M467.5,679.32s-16.13,21.1-18.26,30,22,61.67,26.23,65.21,27.81,10.35,27.81,10.35L466.8,676"/><path class="cls-13" d="M360.3,639.47s10.62,23.39,9.21,31.89-27.65,42.18-31.19,45-8,1.11-8,1.11,9.5-31,13.55-38.74S360.3,639.47,360.3,639.47Z"/><path class="cls-13" d="M445.35,517.2s2.56-22.35,11.73-29.42,36.82-28.34,36.82-28.34-18.78,25.69-29.77,34.82S445.35,517.2,445.35,517.2Z"/><path class="cls-13" d="M457.08,407.34c0,1.42-6.33,44.3-8,52.1s-11.56,19.16-11.56,19.16,7.09-69.13,7.8-71.26S457.08,407.34,457.08,407.34Z"/><path class="cls-13" d="M395.38,408.4s-9.22,9.22-14.89,11.7-28.44,6-30.52,2.83,0-11.28,0-11.28,3.41,4.2,16.61,2.07S395.38,408.4,395.38,408.4Z"/><path class="cls-13" d="M480.08,406.4s28.56,25,29.16,24,2.59-6.74,0-8.51S480.08,406.4,480.08,406.4Z"/><path class="cls-3" d="M364.13,759.08s-10.7-2.23-15.79,0-2.13,7.72-5.73,9.23-14.46-7.25-14.22-11.18,2.91-15.24,2.91-15.24-9.38,5.52-13.2,9.76-9.23,22.07-6.68,27.48,18.5,15.28,18.64,19.73,6.26,22.47,19.91,25.4,31.79.38,34.65-2.8.64-13.68-1.59-16.87-11.83-7.35-13.39-12.11-5.19-11.44-3.06-14.62,3-3.5,3.06-8.92S364.13,759.08,364.13,759.08Z"/><path class="cls-2" d="M526,440.9a4.53,4.53,0,0,1-5.49-4c-2.91-29-16.74-172.59-16.74-177.42,0-5.34-5.77-35.93-5.77-35.93l5.36-3.33s8.42,51.89,7.7,59.84c-.65,7.18,15.31,131.5,18.45,155.81a4.53,4.53,0,0,1-3.51,5Z"/><path class="cls-14" d="M117.83,611s1.52-8.5,18-10.88l8.43,23-22.86,6.16Z"/><path class="cls-3" d="M153.06,617.29s-4.78,28.18-2.39,29.24,14.89,5.85,14.89,5.85l20.73-35.09"/><path class="cls-3" d="M99.76,763.58s8,6.31,17.93,4.55l-7.51-13.33"/><path class="cls-1" d="M127.75,607.75l25.73,19c9.87,1.93,10.83,7.85,9.87,10.51L110.18,768.06c-1.54,4.3,1.61,5.7-10.42-4.48L80.55,746.05a6.38,6.38,0,0,1-1.8-6.58L117.83,611A6.4,6.4,0,0,1,127.75,607.75Z"/><path class="cls-15" d="M161.09,629.05l100.79-15a6.4,6.4,0,0,1,7,8.41L226.33,745.66a6.42,6.42,0,0,1-4.94,4.22l-103.7,18.25a6.39,6.39,0,0,1-7.12-8.46L156,633.22A6.41,6.41,0,0,1,161.09,629.05Z"/><path class="cls-15" d="M269.22,620.22s1-8.77-15.35-16.8l-4.32,15.47"/><path class="cls-14" d="M135.86,600.15l74.27-10.73A38.38,38.38,0,0,1,232.5,593l21.37,10.47A6.4,6.4,0,0,1,252,615.49l-92.07,13.74a6.39,6.39,0,0,1-4.75-1.19L133,611.61A6.39,6.39,0,0,1,135.86,600.15Z"/><path class="cls-3" d="M165.66,608.36a4,4,0,0,1-1.52-4.44c5-16.37,32.12-105.27,32.69-108,.63-2.95,7.85-6.21,9.42-.79L174,607.27a4,4,0,0,1-4.71,2.81A11,11,0,0,1,165.66,608.36Z"/><path class="cls-3" d="M261.85,485.62,231.33,599.35a4,4,0,0,0,1.45,4.23,5.75,5.75,0,0,0,6.57.47,4,4,0,0,0,1.94-2.5l30.38-117.82"/><path class="cls-1" d="M84,749s-26.12-23.5-27.38-27.59,18.26-64.38,24.24-69S107,646.71,107,646.71Z"/><path class="cls-3" d="M110.18,768.06s2.17,8.77,4.38,10S221,762,223.82,758.88s-2.43-9-2.43-9"/><path class="cls-3" d="M111.3,764.76c1-.11,18.61-3.13,18.61-3.13l-4.22,31.62L106,796.68"/><ellipse class="cls-3" cx="109.43" cy="780.67" rx="16.68" ry="11.34" transform="translate(-654.77 587.24) rotate(-67.82)"/><ellipse class="cls-3" cx="126.23" cy="777.63" rx="16.68" ry="11.34" transform="translate(-641.5 600.9) rotate(-67.82)"/><ellipse class="cls-13" cx="106.97" cy="779.67" rx="12.54" ry="8.52" transform="translate(-655.38 584.34) rotate(-67.82)"/><ellipse class="cls-3" cx="197.85" cy="763.14" rx="16.68" ry="11.34" transform="translate(-583.51 658.2) rotate(-67.82)"/><ellipse class="cls-3" cx="214.65" cy="760.1" rx="16.68" ry="11.34" transform="translate(-570.23 671.86) rotate(-67.82)"/><path class="cls-3" d="M199.72,747.23c1-.11,18.61-3.13,18.61-3.13l-4.22,31.62-19.74,3.43"/><path class="cls-16" d="M449.71,254s42-13.17,44.19-14.65-16.83-3.7-10.8-7.09,27-15.39,27-15.39"/><path class="cls-16" d="M438.47,251.24l-48.8-18.68L400,222.92S372.29,202.14,372.21,201s10.37-11.62,10.37-11.62"/><path class="cls-16" d="M417.38,318c1.75-.15,51.21,10.68,84.48-3.23"/><path class="cls-16" d="M502.42,329s-26,22.79-67.65,14.81"/><path class="cls-17" d="M400.66,130.47s7.17,20.77,18.82,15.57"/><path class="cls-17" d="M391.16,123.24s-.15-5,18.91-6.18"/><path class="cls-17" d="M400.66,96.31s5,11.8,16.72,13.16"/><path class="cls-17" d="M409,91.4s6.84-7,19.48-6.77"/><path class="cls-17" d="M422.35,65.22s-.44,9.58,13.67,10.1"/><path class="cls-17" d="M447.92,59.57s4.57.33,5.39,9.8"/><path class="cls-18" d="M244.85,501.41s7.17-6.28,6.72-12.93"/><path class="cls-19" d="M545.18,304.61s17.38,1.89,24.17-4.44"/><path class="cls-19" d="M476.19,829.05s.45,9.89,13.95,8.59"/><path class="cls-20" d="M94.34,749.88s42.25-115.6,49.95-126.74"/><path class="cls-2" d="M578.79,838.16s5.56,5.8,4.57,12.2-36.85,32.9-57.84,38.8-28.36,7-30,4.53-3.6-10-3.6-10,21.53.28,36.94-14.16,31.36-27.78,36.48-30.11S578.79,838.16,578.79,838.16Z"/><line class="cls-21" x1="148.8" y1="620.34" x2="253.01" y2="606.5"/><path class="cls-3" d="M482.32,848.79a10.7,10.7,0,0,0-1,9.13c1.89,4.8,9.56,22,10.52,25.76s30.55.48,38.66-2.7,23.78-13.35,29.12-22,3.22-14.94,6-16.93,7.18-4.2,8.39-4,5.63,1.1,4.7.07-9-5.29-15.12-4.37-6.81,9.24-17.22,5-25.59-9-26.61-13.19-8.14-7.36-13.26-5-12.5,7.75-12,13.92,8.12,12.44,4.17,17.34S483.84,853.64,482.32,848.79Z"/><path class="cls-15" d="M310,778.28A11.66,11.66,0,0,1,311,774s16.38,15,17,18,13.94,25.47,22,27.73,33-1.55,36-3.14c0,0,.19,6.68-2.89,7.55S355,832,339,823c0,0-11-26-16-28C323,795,308.91,787.55,310,778.28Z"/><path class="cls-10" d="M278.54,355.15S287,364,299,363"/><path class="cls-22" d="M531,831.92S517,835,514,844"/><path class="cls-22" d="M538.21,834.2s-14,3.08-17,12.08"/><path class="cls-22" d="M546.21,837.2s-14,3.08-17,12.08"/><path class="cls-23" d="M622.63,190.92c3.91-3,7.84-6,11.69-9.08,1.56-1.28,2.69-1.28,3.9.42,1.51,2.13,3.11,4.15,4.72,6.25,1.13,1.38,1.13,2.42-.38,3.57-7.81,6-15.55,12.09-23.39,18.08a6.54,6.54,0,0,1-9.24-.37c-.12-.13-.24-.28-.36-.42a6.64,6.64,0,0,1,1.37-9.28c.11-.09.23-.17.35-.25Q617,195.28,622.63,190.92Z"/><path class="cls-23" d="M573.72,156.49c1.37,10.35,2.82,20.52,4.24,30.83a5.82,5.82,0,0,1-2.55,5.43,6.38,6.38,0,0,1-9-.91,6.47,6.47,0,0,1-1.41-3.46c-1.16-7.59-3-22.56-4-30.17"/><path class="cls-23" d="M616.77,246.77a6.19,6.19,0,0,1,6.77-1.23c9.27,3.75,18.57,7.46,27.83,11.35,1.62.66,2.23,1.57,1.47,3.29-1.12,2.5-2.13,5.07-3.16,7.62-.59,1.44-1.44,1.83-2.95,1.23-9.41-3.91-18.92-7.55-28.26-11.62a6.24,6.24,0,0,1-1.7-10.64Z"/><path class="cls-23" d="M613,165.08c-3.85,9.25-7.61,18.55-11.48,27.8a17.76,17.76,0,0,1-2,3.08,6.79,6.79,0,0,1-7.88-.09,6.36,6.36,0,0,1-2.11-7.62c1.91-4.91,4-9.75,6-14.63,1.77-4.32,3.6-8.62,5.29-13"/><path class="cls-23" d="M619.34,232.09a6.49,6.49,0,0,1,4-10.89c7.25-1.1,14.54-2,21.84-3,2.6-.38,5.29-.66,7.93-1.1,1.67-.28,2.57.29,2.8,1.95.37,2.82.74,5.63,1.14,8.44.26,1.64-.62,2.33-2,2.45L625,234A6.14,6.14,0,0,1,619.34,232.09Z"/><circle class="cls-24" cx="525.5" cy="435.5" r="2.5"/><path class="cls-15" d="M362.42,820.27S368,818,370,816s6-5,10-5c2,0,4,3,4,3s2.42,1.89,1.71,4.45"/></svg>